<?xml version="1.0" encoding="UTF-8" standalone="no"?>
<svg
   viewBox="-20 -20 128.48243 128.46668"
   width="82.228752"
   height="82.218674"
   style="display:block"
   version="1.1"
   id="svg186"
   sodipodi:docname="favicon.svg"
   xmlns:inkscape="http://www.inkscape.org/namespaces/inkscape"
   xmlns:sodipodi="http://sodipodi.sourceforge.net/DTD/sodipodi-0.dtd"
   xmlns="http://www.w3.org/2000/svg"
   xmlns:svg="http://www.w3.org/2000/svg">
  <defs
     id="defs190" />
  <sodipodi:namedview
     id="namedview188"
     pagecolor="#ffffff"
     bordercolor="#000000"
     borderopacity="0.25"
     inkscape:showpageshadow="2"
     inkscape:pageopacity="0.0"
     inkscape:pagecheckerboard="0"
     inkscape:deskcolor="#d1d1d1"
     showgrid="false" />
  <path
     fill="none"
     stroke="#d96c4a"
     stroke-width="12.9996"
     stroke-linecap="round"
     stroke-linejoin="round"
     d="m 100.84843,63.32101 a 57.754075,58.815186 89.961827 0 1 -66.27838,37.691 57.754075,58.815186 89.961827 0 1 -48.017679,-58.59057 57.754075,58.815186 89.961827 0 1 51.66916,-55.517002 57.754075,58.815186 89.961827 0 1 63.737859,41.699709"
     id="path182" />
  <path
     fill="none"
     stroke="#d96c4a"
     stroke-width="12.9993"
     stroke-linecap="round"
     stroke-linejoin="round"
     d="M 14.998321,28.363078 A 33.7739,34.394727 89.94934 0 1 53.128198,11.361299 33.7739,34.394727 89.94934 0 1 79.720082,43.126225 33.7739,34.394727 89.94934 0 1 55.355173,76.57074 33.7739,34.394727 89.94934 0 1 16.151089,62.11797"
     id="path184" />
</svg>
